# xmcd
#
# Track frame offsets: 
#        222
#        13170
#        20955
#        44787
#        61207
#        76660
#        87290
#        93735
#        109312
#        131412
#        142032
#
# Disc length: 2176 seconds
#
# Revision: 1
# Processed by: cddbd v1.5.2PL0 Copyright (c) Steve Scherf et al.
# Submitted via: ExactAudioCopy v1.0b1
#
DISCID=9a087e0b
DTITLE=John Lee Hooker - Concert At Newport
DYEAR=1964
DGENRE=blues
TTITLE0=I Can't Quit You Now Blues
TTITLE1=Stop Baby Don't Hold Me That Way
TTITLE2=Tupelo
TTITLE3=Bus Station Blues
TTITLE4=Freight Train Be My Friend
TTITLE5=Boom Boom Boom
TTITLE6=Talk That Talk Baby
TTITLE7=Sometimes Baby You Make Me Feel So Bad
TTITLE8=You've Got To Walk Yourself
TTITLE9=Let's Make It
TTITLE10=The Mighty Fire
EXTD=
EXTT0=
EXTT1=
EXTT2=
EXTT3=
EXTT4=
EXTT5=
EXTT6=
EXTT7=
EXTT8=
EXTT9=
EXTT10=
PLAYORDER=
